<mxfile host="Electron" modified="2023-09-06T00:59:34.511Z" agent="Mozilla/5.0 (Windows NT 10.0; Win64; x64) AppleWebKit/537.36 (KHTML, like Gecko) draw.io/21.6.8 Chrome/114.0.5735.289 Electron/25.5.0 Safari/537.36" etag="cVnFBxDYEmXqoclb4pdm" version="21.6.8" type="device">
  <diagram name="Página-1" id="0Ti34YRD-I-s_RzdFEXm">
    <mxGraphModel dx="1615" dy="955" grid="1" gridSize="10" guides="1" tooltips="1" connect="1" arrows="1" fold="1" page="1" pageScale="1" pageWidth="1169" pageHeight="827" math="0" shadow="0">
      <root>
        <mxCell id="0" />
        <mxCell id="1" parent="0" />
        <mxCell id="2fJ6rS5AO3E3voDiFRPf-76" style="edgeStyle=orthogonalEdgeStyle;rounded=0;orthogonalLoop=1;jettySize=auto;html=1;entryX=0.5;entryY=1;entryDx=0;entryDy=0;" edge="1" parent="1" source="2fJ6rS5AO3E3voDiFRPf-5" target="2fJ6rS5AO3E3voDiFRPf-70">
          <mxGeometry relative="1" as="geometry" />
        </mxCell>
        <mxCell id="2fJ6rS5AO3E3voDiFRPf-5" value="POLICIA" style="swimlane;childLayout=stackLayout;horizontal=1;startSize=50;horizontalStack=0;rounded=1;fontSize=14;fontStyle=0;strokeWidth=2;resizeParent=0;resizeLast=1;shadow=0;dashed=0;align=center;arcSize=4;whiteSpace=wrap;html=1;" vertex="1" parent="1">
          <mxGeometry x="529" y="176" width="160" height="120" as="geometry" />
        </mxCell>
        <mxCell id="2fJ6rS5AO3E3voDiFRPf-6" value="&lt;b&gt;&lt;u&gt;IdPolicia&lt;/u&gt;&lt;/b&gt;&lt;br&gt;Nombre&lt;br&gt;Créditos&lt;br&gt;Horas" style="align=left;strokeColor=none;fillColor=none;spacingLeft=4;fontSize=12;verticalAlign=top;resizable=0;rotatable=0;part=1;html=1;" vertex="1" parent="2fJ6rS5AO3E3voDiFRPf-5">
          <mxGeometry y="50" width="160" height="70" as="geometry" />
        </mxCell>
        <mxCell id="2fJ6rS5AO3E3voDiFRPf-27" style="edgeStyle=orthogonalEdgeStyle;rounded=0;orthogonalLoop=1;jettySize=auto;html=1;entryX=1.012;entryY=0.134;entryDx=0;entryDy=0;entryPerimeter=0;" edge="1" parent="1" source="2fJ6rS5AO3E3voDiFRPf-17" target="2fJ6rS5AO3E3voDiFRPf-6">
          <mxGeometry relative="1" as="geometry" />
        </mxCell>
        <mxCell id="2fJ6rS5AO3E3voDiFRPf-17" value="PATRULLA" style="swimlane;childLayout=stackLayout;horizontal=1;startSize=50;horizontalStack=0;rounded=1;fontSize=14;fontStyle=0;strokeWidth=2;resizeParent=0;resizeLast=1;shadow=0;dashed=0;align=center;arcSize=4;whiteSpace=wrap;html=1;" vertex="1" parent="1">
          <mxGeometry x="998" y="192" width="160" height="120" as="geometry" />
        </mxCell>
        <mxCell id="2fJ6rS5AO3E3voDiFRPf-18" value="&lt;b&gt;&lt;u&gt;NumPatrulla&lt;/u&gt;&lt;/b&gt;&lt;br&gt;Modelo&lt;br&gt;Condiciones" style="align=left;strokeColor=none;fillColor=none;spacingLeft=4;fontSize=12;verticalAlign=top;resizable=0;rotatable=0;part=1;html=1;" vertex="1" parent="2fJ6rS5AO3E3voDiFRPf-17">
          <mxGeometry y="50" width="160" height="70" as="geometry" />
        </mxCell>
        <mxCell id="2fJ6rS5AO3E3voDiFRPf-86" style="edgeStyle=orthogonalEdgeStyle;rounded=0;orthogonalLoop=1;jettySize=auto;html=1;" edge="1" parent="1" source="2fJ6rS5AO3E3voDiFRPf-21" target="2fJ6rS5AO3E3voDiFRPf-84">
          <mxGeometry relative="1" as="geometry" />
        </mxCell>
        <mxCell id="2fJ6rS5AO3E3voDiFRPf-21" value="DELINCUENTE" style="swimlane;childLayout=stackLayout;horizontal=1;startSize=50;horizontalStack=0;rounded=1;fontSize=14;fontStyle=0;strokeWidth=2;resizeParent=0;resizeLast=1;shadow=0;dashed=0;align=center;arcSize=4;whiteSpace=wrap;html=1;" vertex="1" parent="1">
          <mxGeometry x="529" y="510" width="160" height="120" as="geometry" />
        </mxCell>
        <mxCell id="2fJ6rS5AO3E3voDiFRPf-22" value="&lt;b&gt;&lt;u&gt;Matrícula&lt;/u&gt;&lt;/b&gt;&lt;br&gt;Nombre&lt;br&gt;Fecha de nacimiento" style="align=left;strokeColor=none;fillColor=none;spacingLeft=4;fontSize=12;verticalAlign=top;resizable=0;rotatable=0;part=1;html=1;" vertex="1" parent="2fJ6rS5AO3E3voDiFRPf-21">
          <mxGeometry y="50" width="160" height="70" as="geometry" />
        </mxCell>
        <mxCell id="2fJ6rS5AO3E3voDiFRPf-44" style="edgeStyle=orthogonalEdgeStyle;rounded=0;orthogonalLoop=1;jettySize=auto;html=1;entryX=0.5;entryY=0;entryDx=0;entryDy=0;" edge="1" parent="1" source="2fJ6rS5AO3E3voDiFRPf-24" target="2fJ6rS5AO3E3voDiFRPf-21">
          <mxGeometry relative="1" as="geometry" />
        </mxCell>
        <mxCell id="2fJ6rS5AO3E3voDiFRPf-24" value="ARRESTA" style="shape=rhombus;perimeter=rhombusPerimeter;whiteSpace=wrap;html=1;align=center;" vertex="1" parent="1">
          <mxGeometry x="549" y="370" width="120" height="60" as="geometry" />
        </mxCell>
        <mxCell id="2fJ6rS5AO3E3voDiFRPf-25" value="CELDA" style="swimlane;childLayout=stackLayout;horizontal=1;startSize=50;horizontalStack=0;rounded=1;fontSize=14;fontStyle=0;strokeWidth=2;resizeParent=0;resizeLast=1;shadow=0;dashed=0;align=center;arcSize=4;whiteSpace=wrap;html=1;" vertex="1" parent="1">
          <mxGeometry x="19" y="670" width="160" height="120" as="geometry" />
        </mxCell>
        <mxCell id="2fJ6rS5AO3E3voDiFRPf-26" value="&lt;b&gt;&lt;u&gt;NumCelda&lt;br&gt;&lt;/u&gt;&lt;/b&gt;Pabellon&lt;br&gt;CapaDeRecrusos" style="align=left;strokeColor=none;fillColor=none;spacingLeft=4;fontSize=12;verticalAlign=top;resizable=0;rotatable=0;part=1;html=1;" vertex="1" parent="2fJ6rS5AO3E3voDiFRPf-25">
          <mxGeometry y="50" width="160" height="70" as="geometry" />
        </mxCell>
        <mxCell id="2fJ6rS5AO3E3voDiFRPf-28" value="&lt;font style=&quot;font-size: 25px;&quot;&gt;1&lt;/font&gt;" style="text;html=1;strokeColor=none;fillColor=none;align=center;verticalAlign=middle;whiteSpace=wrap;rounded=0;" vertex="1" parent="1">
          <mxGeometry x="678" y="205" width="60" height="30" as="geometry" />
        </mxCell>
        <mxCell id="2fJ6rS5AO3E3voDiFRPf-29" value="&lt;font style=&quot;font-size: 25px;&quot;&gt;1&lt;/font&gt;" style="text;html=1;strokeColor=none;fillColor=none;align=center;verticalAlign=middle;whiteSpace=wrap;rounded=0;" vertex="1" parent="1">
          <mxGeometry x="950" y="207" width="60" height="30" as="geometry" />
        </mxCell>
        <mxCell id="2fJ6rS5AO3E3voDiFRPf-31" value="&lt;font style=&quot;font-size: 25px;&quot;&gt;o&lt;/font&gt;" style="text;html=1;strokeColor=none;fillColor=none;align=center;verticalAlign=middle;whiteSpace=wrap;rounded=0;" vertex="1" parent="1">
          <mxGeometry x="950" y="234" width="60" height="30" as="geometry" />
        </mxCell>
        <mxCell id="2fJ6rS5AO3E3voDiFRPf-35" value="&lt;font style=&quot;font-size: 25px;&quot;&gt;1&lt;/font&gt;" style="text;html=1;strokeColor=none;fillColor=none;align=center;verticalAlign=middle;whiteSpace=wrap;rounded=0;" vertex="1" parent="1">
          <mxGeometry x="589" y="120" width="60" height="30" as="geometry" />
        </mxCell>
        <mxCell id="2fJ6rS5AO3E3voDiFRPf-36" value="&lt;font style=&quot;font-size: 25px;&quot;&gt;*&lt;/font&gt;" style="text;html=1;strokeColor=none;fillColor=none;align=center;verticalAlign=middle;whiteSpace=wrap;rounded=0;" vertex="1" parent="1">
          <mxGeometry x="512" y="140" width="60" height="30" as="geometry" />
        </mxCell>
        <mxCell id="2fJ6rS5AO3E3voDiFRPf-38" value="|" style="text;html=1;strokeColor=none;fillColor=none;align=center;verticalAlign=middle;whiteSpace=wrap;rounded=0;rotation=-90;strokeWidth=14;fontSize=20;" vertex="1" parent="1">
          <mxGeometry x="574" y="101" width="60" height="30" as="geometry" />
        </mxCell>
        <mxCell id="2fJ6rS5AO3E3voDiFRPf-41" value="ASIGNADA" style="shape=rhombus;perimeter=rhombusPerimeter;whiteSpace=wrap;html=1;align=center;" vertex="1" parent="1">
          <mxGeometry x="789" y="215" width="120" height="60" as="geometry" />
        </mxCell>
        <mxCell id="2fJ6rS5AO3E3voDiFRPf-43" style="edgeStyle=orthogonalEdgeStyle;rounded=0;orthogonalLoop=1;jettySize=auto;html=1;" edge="1" parent="1" source="2fJ6rS5AO3E3voDiFRPf-6">
          <mxGeometry relative="1" as="geometry">
            <mxPoint x="609" y="360" as="targetPoint" />
          </mxGeometry>
        </mxCell>
        <mxCell id="2fJ6rS5AO3E3voDiFRPf-45" value="DELITO" style="swimlane;childLayout=stackLayout;horizontal=1;startSize=50;horizontalStack=0;rounded=1;fontSize=14;fontStyle=0;strokeWidth=2;resizeParent=0;resizeLast=1;shadow=0;dashed=0;align=center;arcSize=4;whiteSpace=wrap;html=1;" vertex="1" parent="1">
          <mxGeometry x="40" y="275" width="160" height="120" as="geometry" />
        </mxCell>
        <mxCell id="2fJ6rS5AO3E3voDiFRPf-46" value="TipoDeDelito&lt;br&gt;Condena" style="align=left;strokeColor=none;fillColor=none;spacingLeft=4;fontSize=12;verticalAlign=top;resizable=0;rotatable=0;part=1;html=1;" vertex="1" parent="2fJ6rS5AO3E3voDiFRPf-45">
          <mxGeometry y="50" width="160" height="70" as="geometry" />
        </mxCell>
        <mxCell id="2fJ6rS5AO3E3voDiFRPf-54" value="|" style="text;html=1;strokeColor=none;fillColor=none;align=center;verticalAlign=middle;whiteSpace=wrap;rounded=0;rotation=0;strokeWidth=14;fontSize=20;" vertex="1" parent="1">
          <mxGeometry x="689" y="219" width="60" height="30" as="geometry" />
        </mxCell>
        <mxCell id="2fJ6rS5AO3E3voDiFRPf-55" value="&lt;font style=&quot;font-size: 25px;&quot;&gt;*&lt;/font&gt;" style="text;html=1;strokeColor=none;fillColor=none;align=center;verticalAlign=middle;whiteSpace=wrap;rounded=0;" vertex="1" parent="1">
          <mxGeometry x="99" y="430" width="60" height="30" as="geometry" />
        </mxCell>
        <mxCell id="2fJ6rS5AO3E3voDiFRPf-56" value="|" style="text;html=1;strokeColor=none;fillColor=none;align=center;verticalAlign=middle;whiteSpace=wrap;rounded=0;rotation=90;strokeWidth=14;fontSize=20;" vertex="1" parent="1">
          <mxGeometry x="93" y="410" width="60" height="30" as="geometry" />
        </mxCell>
        <mxCell id="2fJ6rS5AO3E3voDiFRPf-57" value="&lt;font style=&quot;font-size: 25px;&quot;&gt;*&lt;/font&gt;" style="text;html=1;strokeColor=none;fillColor=none;align=center;verticalAlign=middle;whiteSpace=wrap;rounded=0;" vertex="1" parent="1">
          <mxGeometry x="481" y="536" width="60" height="30" as="geometry" />
        </mxCell>
        <mxCell id="2fJ6rS5AO3E3voDiFRPf-58" value="&lt;font style=&quot;font-size: 25px;&quot;&gt;o&lt;/font&gt;" style="text;html=1;strokeColor=none;fillColor=none;align=center;verticalAlign=middle;whiteSpace=wrap;rounded=0;" vertex="1" parent="1">
          <mxGeometry x="478" y="555" width="60" height="30" as="geometry" />
        </mxCell>
        <mxCell id="2fJ6rS5AO3E3voDiFRPf-59" value="&lt;font style=&quot;font-size: 25px;&quot;&gt;1&lt;/font&gt;" style="text;html=1;strokeColor=none;fillColor=none;align=center;verticalAlign=middle;whiteSpace=wrap;rounded=0;" vertex="1" parent="1">
          <mxGeometry x="179" y="707" width="60" height="30" as="geometry" />
        </mxCell>
        <mxCell id="2fJ6rS5AO3E3voDiFRPf-61" value="|" style="text;html=1;strokeColor=none;fillColor=none;align=center;verticalAlign=middle;whiteSpace=wrap;rounded=0;rotation=0;strokeWidth=14;fontSize=20;" vertex="1" parent="1">
          <mxGeometry x="171" y="737" width="60" height="30" as="geometry" />
        </mxCell>
        <mxCell id="2fJ6rS5AO3E3voDiFRPf-71" style="edgeStyle=orthogonalEdgeStyle;rounded=0;orthogonalLoop=1;jettySize=auto;html=1;" edge="1" parent="1" source="2fJ6rS5AO3E3voDiFRPf-70">
          <mxGeometry relative="1" as="geometry">
            <mxPoint x="529" y="170" as="targetPoint" />
            <Array as="points">
              <mxPoint x="529" y="49" />
              <mxPoint x="529" y="128" />
              <mxPoint x="532" y="128" />
              <mxPoint x="532" y="130" />
              <mxPoint x="529" y="130" />
            </Array>
          </mxGeometry>
        </mxCell>
        <mxCell id="2fJ6rS5AO3E3voDiFRPf-70" value="Supervisa" style="shape=rhombus;perimeter=rhombusPerimeter;whiteSpace=wrap;html=1;align=center;" vertex="1" parent="1">
          <mxGeometry x="549" y="19" width="120" height="60" as="geometry" />
        </mxCell>
        <mxCell id="2fJ6rS5AO3E3voDiFRPf-72" value="&lt;font style=&quot;font-size: 25px;&quot;&gt;o&lt;/font&gt;" style="text;html=1;strokeColor=none;fillColor=none;align=center;verticalAlign=middle;whiteSpace=wrap;rounded=0;" vertex="1" parent="1">
          <mxGeometry x="500" y="112" width="60" height="30" as="geometry" />
        </mxCell>
        <mxCell id="2fJ6rS5AO3E3voDiFRPf-81" style="edgeStyle=orthogonalEdgeStyle;rounded=0;orthogonalLoop=1;jettySize=auto;html=1;entryX=1;entryY=0.5;entryDx=0;entryDy=0;" edge="1" parent="1" source="2fJ6rS5AO3E3voDiFRPf-23" target="2fJ6rS5AO3E3voDiFRPf-26">
          <mxGeometry relative="1" as="geometry" />
        </mxCell>
        <mxCell id="2fJ6rS5AO3E3voDiFRPf-23" value="SE ASIGNA" style="shape=rhombus;perimeter=rhombusPerimeter;whiteSpace=wrap;html=1;align=center;" vertex="1" parent="1">
          <mxGeometry x="332" y="670" width="120" height="60" as="geometry" />
        </mxCell>
        <mxCell id="2fJ6rS5AO3E3voDiFRPf-80" style="edgeStyle=orthogonalEdgeStyle;rounded=0;orthogonalLoop=1;jettySize=auto;html=1;entryX=1;entryY=0.5;entryDx=0;entryDy=0;" edge="1" parent="1" source="2fJ6rS5AO3E3voDiFRPf-22" target="2fJ6rS5AO3E3voDiFRPf-23">
          <mxGeometry relative="1" as="geometry" />
        </mxCell>
        <mxCell id="2fJ6rS5AO3E3voDiFRPf-82" value="&lt;font style=&quot;font-size: 25px;&quot;&gt;*&lt;/font&gt;" style="text;html=1;strokeColor=none;fillColor=none;align=center;verticalAlign=middle;whiteSpace=wrap;rounded=0;" vertex="1" parent="1">
          <mxGeometry x="481" y="600" width="60" height="30" as="geometry" />
        </mxCell>
        <mxCell id="2fJ6rS5AO3E3voDiFRPf-83" value="&lt;font style=&quot;font-size: 25px;&quot;&gt;o&lt;/font&gt;" style="text;html=1;strokeColor=none;fillColor=none;align=center;verticalAlign=middle;whiteSpace=wrap;rounded=0;" vertex="1" parent="1">
          <mxGeometry x="472" y="578" width="60" height="30" as="geometry" />
        </mxCell>
        <mxCell id="2fJ6rS5AO3E3voDiFRPf-88" style="edgeStyle=orthogonalEdgeStyle;rounded=0;orthogonalLoop=1;jettySize=auto;html=1;" edge="1" parent="1" source="2fJ6rS5AO3E3voDiFRPf-84" target="2fJ6rS5AO3E3voDiFRPf-46">
          <mxGeometry relative="1" as="geometry" />
        </mxCell>
        <mxCell id="2fJ6rS5AO3E3voDiFRPf-96" style="edgeStyle=orthogonalEdgeStyle;rounded=0;orthogonalLoop=1;jettySize=auto;html=1;entryX=0.5;entryY=1;entryDx=0;entryDy=0;" edge="1" parent="1" source="2fJ6rS5AO3E3voDiFRPf-84" target="2fJ6rS5AO3E3voDiFRPf-94">
          <mxGeometry relative="1" as="geometry" />
        </mxCell>
        <mxCell id="2fJ6rS5AO3E3voDiFRPf-84" value="COMETE" style="shape=rhombus;perimeter=rhombusPerimeter;whiteSpace=wrap;html=1;align=center;" vertex="1" parent="1">
          <mxGeometry x="300" y="440" width="120" height="60" as="geometry" />
        </mxCell>
        <mxCell id="2fJ6rS5AO3E3voDiFRPf-89" value="&lt;font style=&quot;font-size: 25px;&quot;&gt;*&lt;/font&gt;" style="text;html=1;strokeColor=none;fillColor=none;align=center;verticalAlign=middle;whiteSpace=wrap;rounded=0;" vertex="1" parent="1">
          <mxGeometry x="589" y="296" width="60" height="30" as="geometry" />
        </mxCell>
        <mxCell id="2fJ6rS5AO3E3voDiFRPf-91" value="&lt;font style=&quot;font-size: 25px;&quot;&gt;1&lt;/font&gt;" style="text;html=1;strokeColor=none;fillColor=none;align=center;verticalAlign=middle;whiteSpace=wrap;rounded=0;" vertex="1" parent="1">
          <mxGeometry x="600" y="477" width="60" height="30" as="geometry" />
        </mxCell>
        <mxCell id="2fJ6rS5AO3E3voDiFRPf-92" value="|" style="text;html=1;strokeColor=none;fillColor=none;align=center;verticalAlign=middle;whiteSpace=wrap;rounded=0;rotation=-90;strokeWidth=14;fontSize=20;" vertex="1" parent="1">
          <mxGeometry x="578" y="307" width="60" height="30" as="geometry" />
        </mxCell>
        <mxCell id="2fJ6rS5AO3E3voDiFRPf-93" value="|" style="text;html=1;strokeColor=none;fillColor=none;align=center;verticalAlign=middle;whiteSpace=wrap;rounded=0;rotation=-90;strokeWidth=14;fontSize=20;" vertex="1" parent="1">
          <mxGeometry x="578" y="463" width="60" height="30" as="geometry" />
        </mxCell>
        <mxCell id="2fJ6rS5AO3E3voDiFRPf-94" value="" style="swimlane;childLayout=stackLayout;horizontal=1;startSize=50;horizontalStack=0;rounded=1;fontSize=14;fontStyle=0;strokeWidth=2;resizeParent=0;resizeLast=1;shadow=0;dashed=0;align=center;arcSize=4;whiteSpace=wrap;html=1;" vertex="1" parent="1">
          <mxGeometry x="300" y="270" width="160" height="99" as="geometry" />
        </mxCell>
        <mxCell id="2fJ6rS5AO3E3voDiFRPf-95" value="Lugar&lt;br&gt;Fecha" style="align=left;strokeColor=none;fillColor=none;spacingLeft=4;fontSize=12;verticalAlign=top;resizable=0;rotatable=0;part=1;html=1;" vertex="1" parent="2fJ6rS5AO3E3voDiFRPf-94">
          <mxGeometry y="50" width="160" height="49" as="geometry" />
        </mxCell>
        <mxCell id="2fJ6rS5AO3E3voDiFRPf-97" value="FBD_1P_PR06&lt;br&gt;&lt;br&gt;ANGEL ONESTO" style="text;html=1;strokeColor=none;fillColor=none;align=center;verticalAlign=middle;whiteSpace=wrap;rounded=0;strokeWidth=50;fontSize=20;fontColor=#FF3333;" vertex="1" parent="1">
          <mxGeometry x="140" y="124" width="230" height="30" as="geometry" />
        </mxCell>
        <mxCell id="2fJ6rS5AO3E3voDiFRPf-98" value="" style="endArrow=none;html=1;rounded=0;entryX=1;entryY=0.5;entryDx=0;entryDy=0;strokeWidth=4;exitX=0;exitY=0.5;exitDx=0;exitDy=0;fontColor=#FF3333;" edge="1" parent="1" source="2fJ6rS5AO3E3voDiFRPf-97" target="2fJ6rS5AO3E3voDiFRPf-97">
          <mxGeometry width="50" height="50" relative="1" as="geometry">
            <mxPoint x="170" y="135" as="sourcePoint" />
            <mxPoint x="370" y="280" as="targetPoint" />
          </mxGeometry>
        </mxCell>
      </root>
    </mxGraphModel>
  </diagram>
</mxfile>
